<?xml version="1.0" encoding="UTF-8" standalone="no"?>
<!-- Created with Inkscape (http://www.inkscape.org/) -->

<svg
   width="178"
   height="56"
   viewBox="0 0 47.095832 14.816667"
   version="1.1"
   id="svg1"
   sodipodi:docname="lacos.svg"
   inkscape:version="1.4 (e7c3feb100, 2024-10-09)"
   xmlns:inkscape="http://www.inkscape.org/namespaces/inkscape"
   xmlns:sodipodi="http://sodipodi.sourceforge.net/DTD/sodipodi-0.dtd"
   xmlns:xlink="http://www.w3.org/1999/xlink"
   xmlns="http://www.w3.org/2000/svg"
   xmlns:svg="http://www.w3.org/2000/svg">
  <sodipodi:namedview
     id="namedview1"
     pagecolor="#ffffff"
     bordercolor="#000000"
     borderopacity="0.25"
     inkscape:showpageshadow="2"
     inkscape:pageopacity="0.0"
     inkscape:pagecheckerboard="0"
     inkscape:deskcolor="#d1d1d1"
     inkscape:document-units="mm"
     inkscape:zoom="1.4142136"
     inkscape:cx="51.265242"
     inkscape:cy="-91.923882"
     inkscape:window-width="1920"
     inkscape:window-height="1011"
     inkscape:window-x="0"
     inkscape:window-y="0"
     inkscape:window-maximized="1"
     inkscape:current-layer="layer1"
     showgrid="false" />
  <defs
     id="defs1">
    <linearGradient
       id="linearGradient1"
       inkscape:collect="always">
      <stop
         style="stop-color:#ba1a1a;stop-opacity:1;"
         offset="0"
         id="stop1" />
      <stop
         style="stop-color:#ba1a1a;stop-opacity:0;"
         offset="1"
         id="stop2" />
    </linearGradient>
    <linearGradient
       id="linearGradient6"
       inkscape:collect="always">
      <stop
         style="stop-color:#8dd35f;stop-opacity:1;"
         offset="0"
         id="stop6" />
      <stop
         style="stop-color:#8dd35f;stop-opacity:0;"
         offset="1"
         id="stop7" />
    </linearGradient>
    <linearGradient
       inkscape:collect="always"
       xlink:href="#linearGradient6"
       id="linearGradient7"
       x1="69.226326"
       y1="62.356934"
       x2="59.340012"
       y2="64.213181"
       gradientUnits="userSpaceOnUse" />
    <linearGradient
       inkscape:collect="always"
       xlink:href="#linearGradient1"
       id="linearGradient2"
       x1="66.739449"
       y1="61.201332"
       x2="61.153946"
       y2="66.786835"
       gradientUnits="userSpaceOnUse" />
  </defs>
  <g
     inkscape:label="Layer 1"
     inkscape:groupmode="layer"
     id="layer1">
    <g
       id="g7"
       transform="matrix(1.3349722,0,0,1.3349722,-81.534302,-74.29374)"
       style="stroke-width:0.749079">
      <g
         id="g2">
        <path
           id="rect3"
           style="fill:url(#linearGradient2);stroke:none;stroke-width:0.792772;stroke-linecap:round;stroke-linejoin:round"
           d="m 71.612078,56.273792 c 0.829178,0.829178 0.829178,2.164243 2e-6,2.993419 l -7.483547,7.483547 -10e-7,-2.993419 -2.993419,-2e-6 7.483546,-7.483546 c 0.829177,-0.829177 2.164242,-0.829176 2.993419,10e-7 z"
           sodipodi:nodetypes="sscccss" />
        <path
           id="path5"
           style="opacity:0.75;fill:#ba1a1a;stroke:none;stroke-width:0.792772;stroke-linecap:round;stroke-linejoin:round"
           d="m 70.115617,55.6519 c -0.541061,0 -1.082478,0.207079 -1.497066,0.621668 0,0 -1.839768,1.848171 -4.104659,0.540535 -1.01553,-0.586317 -2.304981,-0.240901 -2.891297,0.77463 -0.586318,1.015531 -0.2409,2.305497 0.77463,2.891813 l 1.277441,0.737423 3.795634,2.19108 3.099036,-3.099035 1.04283,-1.042831 c 0.829176,-0.829176 0.829178,-2.164437 0,-2.993615 C 71.197578,55.858979 70.656677,55.6519 70.115617,55.6519 Z"
           sodipodi:nodetypes="sscsccccsss" />
        <path
           id="path3"
           style="fill:url(#linearGradient7);stroke:none;stroke-width:0.792772;stroke-linecap:round;stroke-linejoin:round"
           d="m 61.62269,57.58892 c 0.586316,-1.015531 1.87589,-1.361072 2.89142,-0.774755 l 9.165436,5.291666 -2.891421,0.774755 0.774753,2.891422 -9.165436,-5.291667 c -1.01553,-0.586316 -1.36107,-1.87589 -0.774752,-2.891421 z"
           sodipodi:nodetypes="sscccss" />
      </g>
    </g>
    <path
       style="-inkscape-font-specification:'Nunito Bold';fill:#59a02c;stroke-width:1.05833;stroke-linecap:round;stroke-linejoin:round"
       d="m 22.883372,10.943344 q -0.936979,0 -1.411113,-0.530578 Q 20.998126,9.8708983 20.998126,8.8323195 V 3.4926696 q 0,-0.3499559 0.180622,-0.5305783 0.180622,-0.1806224 0.519289,-0.1806224 0.338667,0 0.51929,0.1806224 0.191911,0.1806224 0.191911,0.5305783 v 5.2719165 q 0,0.5192894 0.214489,0.7676452 0.225778,0.2483558 0.632179,0.2483558 0.09031,0 0.169333,0 0.07902,-0.011289 0.158045,-0.022578 0.158044,-0.022578 0.214489,0.090311 0.05644,0.1016001 0.05644,0.4289785 0,0.282222 -0.112889,0.440267 -0.112889,0.158044 -0.372533,0.191911 -0.112889,0.01129 -0.237067,0.02258 -0.124178,0.01129 -0.248356,0.01129 z m 3.533429,0 q -0.598312,0 -1.072446,-0.225778 -0.462845,-0.237067 -0.733779,-0.632179 -0.259644,-0.3951111 -0.259644,-0.8918227 0,-0.6096006 0.316089,-0.9595566 0.316089,-0.3612448 1.02729,-0.5192894 0.711201,-0.1580446 1.907824,-0.1580446 h 0.564445 v 0.8128008 h -0.553156 q -0.699912,0 -1.117601,0.067733 -0.417689,0.067733 -0.598312,0.237067 -0.169333,0.1580446 -0.169333,0.451556 0,0.3725337 0.259644,0.6096006 0.259645,0.2370669 0.72249,0.2370669 0.372534,0 0.654756,-0.1693335 0.293512,-0.1806224 0.462845,-0.4854227 0.169334,-0.3048003 0.169334,-0.6999118 V 7.3196068 q 0,-0.564445 -0.248356,-0.8128008 -0.248356,-0.2483558 -0.835379,-0.2483558 -0.327378,0 -0.711201,0.079022 -0.372533,0.079022 -0.790223,0.2709336 -0.214489,0.1016001 -0.383822,0.056445 -0.158045,-0.045156 -0.248356,-0.1806224 -0.09031,-0.1467557 -0.09031,-0.3160892 0,-0.1693335 0.09031,-0.3273781 0.09031,-0.1693335 0.3048,-0.2483558 0.51929,-0.2144892 0.993424,-0.3048004 0.485422,-0.090311 0.880534,-0.090311 0.812801,0 1.33209,0.2483558 0.530578,0.2483559 0.790223,0.7563564 0.259645,0.4967116 0.259645,1.2869346 v 2.7093357 q 0,0.349956 -0.169334,0.541868 -0.169333,0.180622 -0.485423,0.180622 -0.316089,0 -0.496711,-0.180622 -0.169334,-0.191912 -0.169334,-0.541868 V 9.6564092 h 0.09031 q -0.07902,0.3951118 -0.31609,0.6886228 -0.225778,0.282223 -0.575734,0.440267 -0.349955,0.158045 -0.801511,0.158045 z m 6.908816,0 q -0.869245,0 -1.512712,-0.349956 -0.643468,-0.361245 -0.993424,-1.0160011 -0.349955,-0.6547562 -0.349955,-1.5352905 0,-0.6660451 0.191911,-1.1853345 0.2032,-0.5305783 0.575734,-0.8918231 0.372534,-0.3725337 0.903112,-0.5644451 0.530578,-0.2032002 1.185334,-0.2032002 0.372534,0 0.801512,0.1016001 0.440267,0.1016001 0.82409,0.3386671 0.180622,0.112889 0.237067,0.2709336 0.05644,0.1580446 0.02258,0.3273781 -0.03387,0.1580446 -0.146756,0.2822225 -0.1016,0.112889 -0.259645,0.1467557 -0.158044,0.022578 -0.349956,-0.079022 -0.248355,-0.1467557 -0.508,-0.2144891 -0.259645,-0.079022 -0.496712,-0.079022 -0.372533,0 -0.654756,0.1241779 -0.282222,0.112889 -0.485423,0.338667 -0.191911,0.2144891 -0.293511,0.5418672 -0.1016,0.3273781 -0.1016,0.7563563 0,0.8353787 0.395111,1.3208014 0.406401,0.4741338 1.140179,0.4741338 0.237067,0 0.485423,-0.067733 0.259645,-0.067733 0.519289,-0.2144891 0.191912,-0.1016001 0.338667,-0.067733 0.158045,0.033867 0.259645,0.1580446 0.1016,0.112889 0.124178,0.2822225 0.02258,0.1580443 -0.04516,0.3160893 -0.05644,0.158045 -0.225778,0.259645 -0.372533,0.225778 -0.790223,0.327378 -0.417689,0.1016 -0.790223,0.1016 z m -0.06773,2.088446 q -0.214489,0 -0.451556,-0.03387 -0.237067,-0.02258 -0.428978,-0.09031 -0.169334,-0.05644 -0.237067,-0.191911 -0.05644,-0.124178 -0.02258,-0.259645 0.04516,-0.124177 0.158045,-0.191911 0.124178,-0.06773 0.293511,0 0.146756,0.04516 0.282223,0.06773 0.135466,0.02258 0.293511,0.02258 0.293511,0 0.451556,-0.09031 0.158045,-0.07902 0.158045,-0.248356 0,-0.124178 -0.101601,-0.191911 -0.09031,-0.06773 -0.316089,-0.06773 -0.07902,0 -0.169333,0 -0.07902,0.01129 -0.169334,0.03387 -0.07902,0.02258 -0.146755,0.01129 -0.05644,0 -0.112889,-0.04515 -0.04516,-0.04516 -0.05644,-0.112889 -0.01129,-0.06773 0,-0.180623 l 0.124178,-0.857956 h 0.756356 l -0.146755,0.857956 -0.361245,-0.124178 q 0.135467,-0.04515 0.270933,-0.06773 0.135467,-0.02258 0.248356,-0.02258 0.462845,0 0.745068,0.214489 0.282222,0.214489 0.282222,0.598312 0,0.440267 -0.372534,0.699912 -0.372533,0.270933 -0.970845,0.270933 z m 5.249337,-2.088446 q -0.857956,0 -1.490135,-0.349956 -0.632178,-0.349956 -0.982134,-0.9934233 -0.349956,-0.6547562 -0.349956,-1.5352905 0,-0.6660451 0.191911,-1.1853345 0.2032,-0.5305783 0.575734,-0.903112 0.372534,-0.3838226 0.891823,-0.575734 0.51929,-0.2032002 1.162757,-0.2032002 0.857956,0 1.490135,0.349956 0.632178,0.3499559 0.982134,0.9934232 0.349956,0.6434673 0.349956,1.5240015 0,0.6660452 -0.2032,1.1966235 -0.191911,0.5305783 -0.564445,0.9144013 -0.372534,0.372533 -0.891823,0.575734 -0.51929,0.191911 -1.162757,0.191911 z m 0,-1.0724457 q 0.417689,0 0.733779,-0.2032002 0.316089,-0.2032002 0.485422,-0.5983117 0.180623,-0.4064004 0.180623,-1.0047122 0,-0.903112 -0.383823,-1.3433791 -0.383823,-0.451556 -1.016001,-0.451556 -0.417689,0 -0.733779,0.2032002 -0.316089,0.1919113 -0.496711,0.5983117 -0.169334,0.3951115 -0.169334,0.9934232 0,0.8918232 0.383823,1.3546681 0.383823,0.451556 1.016001,0.451556 z m 6.005697,1.0724457 q -0.485422,0 -1.02729,-0.1016 -0.541867,-0.1016 -0.970845,-0.349956 -0.180622,-0.112889 -0.259645,-0.259645 -0.06773,-0.158044 -0.05644,-0.3048002 0.02258,-0.1580446 0.112889,-0.2709336 0.1016,-0.112889 0.248356,-0.1467557 0.158044,-0.033867 0.338667,0.056444 0.451556,0.2144891 0.846667,0.3048003 0.395112,0.079022 0.778934,0.079022 0.541867,0 0.801512,-0.1806224 0.270934,-0.1919113 0.270934,-0.4967116 0,-0.2596447 -0.180623,-0.3951115 Q 45.246697,8.7307194 44.896741,8.662986 L 43.767851,8.4484968 Q 43.067939,8.31303 42.695405,7.9404963 42.334161,7.5566737 42.334161,6.958362 q 0,-0.5418672 0.293511,-0.9369787 0.3048,-0.3951115 0.835379,-0.6096007 0.530578,-0.2144891 1.219201,-0.2144891 0.496711,0 0.92569,0.112889 0.440267,0.1016001 0.846667,0.3273782 0.169334,0.090311 0.225778,0.2370669 0.06773,0.1467557 0.03387,0.3048003 -0.03387,0.1467557 -0.135467,0.2709336 -0.1016,0.112889 -0.259645,0.1467557 -0.146755,0.022578 -0.338667,-0.067733 -0.349956,-0.1806224 -0.677334,-0.2596447 -0.316089,-0.079022 -0.6096,-0.079022 -0.553156,0 -0.82409,0.1919113 -0.259645,0.1919113 -0.259645,0.5080005 0,0.2370669 0.158045,0.3951115 0.158045,0.1580446 0.485423,0.2144891 l 1.12889,0.2144891 q 0.733778,0.1354668 1.106312,0.4967116 0.383823,0.3612449 0.383823,0.9708455 0,0.8240896 -0.643468,1.2982236 -0.643467,0.462845 -1.715913,0.462845 z"
       id="text8"
       aria-label="laços" />
  </g>
</svg>
