<?xml version="1.0" encoding="UTF-8" standalone="no"?>
<svg
   width="360"
   height="360"
   version="1.1"
   id="svg45"
   sodipodi:docname="grafismo.svg"
   inkscape:version="1.4 (e7c3feb100, 2024-10-09)"
   xmlns:inkscape="http://www.inkscape.org/namespaces/inkscape"
   xmlns:sodipodi="http://sodipodi.sourceforge.net/DTD/sodipodi-0.dtd"
   xmlns:xlink="http://www.w3.org/1999/xlink"
   xmlns="http://www.w3.org/2000/svg"
   xmlns:svg="http://www.w3.org/2000/svg">
  <path
     id="path45"
     style="opacity:1;fill:#d9e7ca;stroke-width:1"
     d="m 0,0 v 100 123.98242 c 0,0 29.270866,-24.55979 49.822266,-29.25195 11.31618,-2.5832 23.800022,-3.34164 35.875,-4.07422 8.80393,-0.53467 17.908704,-1.08668 26.347654,-2.34961 9.45167,-1.41473 17.10884,-3.59889 23.41211,-6.67773 4.79618,-2.34383 9.18024,-5.40829 13.40039,-9.36719 3.76271,-3.53061 7.05686,-7.43424 10.24219,-11.21094 5.79327,-6.86936 11.78352,-13.97334 20.86914,-19.17773 14.40501,-8.25266 34.28353,-10.34335 48.42383,-10.64453 11.32858,-0.24125 22.81432,0.45671 33.92187,1.13281 5.97225,0.36388 12.14742,0.74126 18.23047,0.96679 9.95978,0.36992 18.54129,0.25152 26.23438,-0.36328 9.45625,-0.75468 17.61007,-2.24087 24.92578,-4.54101 7.91009,-2.48632 15.02972,-6.29322 20.04883,-10.71875 5.43207,-4.78957 8.28379,-10.11862 8.24609,-15.41211 V 100 0 Z"
     sodipodi:nodetypes="ccccccccccsccccscccc" />
  <sodipodi:namedview
     id="namedview45"
     pagecolor="#ffffff"
     bordercolor="#666666"
     borderopacity="1.0"
     inkscape:showpageshadow="2"
     inkscape:pageopacity="0.0"
     inkscape:pagecheckerboard="0"
     inkscape:deskcolor="#d1d1d1"
     inkscape:zoom="2.3360713"
     inkscape:cx="1.0701728"
     inkscape:cy="130.56109"
     inkscape:window-width="1920"
     inkscape:window-height="1011"
     inkscape:window-x="0"
     inkscape:window-y="0"
     inkscape:window-maximized="1"
     inkscape:current-layer="svg45" />
  <defs
     id="defs2">
    <linearGradient
       id="a">
      <stop
         offset="0"
         stop-opacity=".3"
         id="stop1" />
      <stop
         offset="1"
         stop-color="#ff964c"
         id="stop2"
         style="stop-color:#3575d2;stop-opacity:1;" />
    </linearGradient>
    <linearGradient
       xlink:href="#a"
       id="b"
       x1="357.05099"
       y1="853.85101"
       x2="479.95401"
       y2="1066.726"
       gradientUnits="userSpaceOnUse"
       gradientTransform="matrix(-0.26955483,0,0,-0.17269667,324.54401,186.51239)" />
  </defs>
</svg>
